<svg width="80" height="80" viewBox="0 0 80 80" fill="none" xmlns="http://www.w3.org/2000/svg">
<g clip-path="url(#clip0_61_939)">
<path d="M40 80C62.0914 80 80 62.0914 80 40C80 17.9086 62.0914 0 40 0C17.9086 0 0 17.9086 0 40C0 62.0914 17.9086 80 40 80Z" fill="black"/>
<path fill-rule="evenodd" clip-rule="evenodd" d="M62.4843 25.3687L63.8018 22.1306C63.8018 22.1306 62.1249 20.3317 60.0887 18.2929C58.0525 16.2542 53.7405 17.4534 53.7405 17.4534L48.8296 11.875H40.2056H31.5816L26.6707 17.4534C26.6707 17.4534 22.3587 16.2542 20.3224 18.2929C18.2862 20.3317 16.6093 22.1306 16.6093 22.1306L17.9269 25.3687L16.25 30.1658C16.25 30.1658 21.1819 48.8691 21.7598 51.1531C22.8977 55.6504 23.6762 57.3894 26.9102 59.668C30.1442 61.9466 36.0134 65.9043 36.9716 66.5039C37.9298 67.1035 39.1276 68.125 40.2056 68.125C41.2836 68.125 42.4814 67.1035 43.4396 66.5039C44.3978 65.9043 50.2669 61.9466 53.5009 59.668C56.7349 57.3894 57.5135 55.6504 58.6514 51.1531C59.2292 48.8691 64.1612 30.1658 64.1612 30.1658L62.4843 25.3687Z" fill="url(#paint0_linear_61_939)"/>
<path fill-rule="evenodd" clip-rule="evenodd" d="M52.363 20.9913C52.363 20.9913 58.6796 28.6367 58.6796 30.2707C58.6796 31.9047 57.885 32.336 57.086 33.1854C56.2871 34.0349 52.7979 37.7447 52.3498 38.2211C51.9017 38.6975 50.9689 39.4199 51.5176 40.72C52.0663 42.0201 52.8757 43.6745 51.9756 45.3526C51.0753 47.0306 49.5332 48.1506 48.545 47.9654C47.5569 47.7801 45.2362 46.5659 44.3828 46.0112C43.5293 45.4565 40.8245 43.223 40.8245 42.3684C40.8245 41.5139 43.6205 39.9796 44.137 39.6309C44.6537 39.2824 47.0097 37.9331 47.058 37.4035C47.1062 36.8738 47.0878 36.7185 46.3925 35.4098C45.6972 34.1011 44.445 32.3547 44.6535 31.1927C44.8619 30.0308 46.8813 29.4266 48.3225 28.8817C49.7634 28.3369 52.5381 27.3077 52.8846 27.1478C53.2314 26.9877 53.1418 26.8352 52.0917 26.7356C51.0418 26.6359 48.0622 26.2399 46.7189 26.6148C45.3756 26.9897 43.0807 27.5601 42.8948 27.8625C42.7089 28.165 42.5449 28.1752 42.7358 29.2186C42.9266 30.2619 43.9095 35.2684 44.0049 36.1577C44.1003 37.047 44.2869 37.6349 43.3293 37.8541C42.3716 38.0733 40.7595 38.454 40.2055 38.454C39.6515 38.454 38.0393 38.0733 37.0817 37.8541C36.124 37.6349 36.3106 37.047 36.406 36.1577C36.5015 35.2684 37.4843 30.2619 37.6752 29.2186C37.866 28.1752 37.702 28.165 37.5163 27.8625C37.3304 27.5601 35.0353 26.9897 33.692 26.6148C32.3487 26.2399 29.3692 26.6359 28.3192 26.7356C27.2693 26.8352 27.1797 26.9877 27.5263 27.1478C27.8729 27.3077 30.6476 28.3369 32.0885 28.8817C33.5296 29.4266 35.5491 30.0308 35.7576 31.1927C35.966 32.3547 34.7137 34.1011 34.0185 35.4098C33.3232 36.7185 33.3047 36.8738 33.353 37.4035C33.4012 37.9331 35.7573 39.2824 36.2739 39.6309C36.7905 39.9796 39.5864 41.5139 39.5864 42.3684C39.5864 43.223 36.8817 45.4565 36.0283 46.0112C35.1748 46.5659 32.8541 47.7801 31.866 47.9654C30.8778 48.1506 29.3357 47.0306 28.4354 45.3526C27.5353 43.6745 28.3447 42.0201 28.8933 40.72C29.442 39.4199 28.5093 38.6975 28.0611 38.2211C27.6131 37.7447 24.1238 34.0349 23.3249 33.1854C22.5259 32.336 21.7314 31.9047 21.7314 30.2707C21.7314 28.6367 28.0481 20.9913 28.0481 20.9913C28.0481 20.9913 33.3782 22.0107 34.0968 22.0107C34.8155 22.0107 36.3726 21.411 37.8099 20.9313C39.2473 20.4516 40.2055 20.4481 40.2055 20.4481C40.2055 20.4481 41.1637 20.4516 42.6011 20.9313C44.0384 21.411 45.5955 22.0107 46.3142 22.0107C47.0329 22.0107 52.363 20.9913 52.363 20.9913ZM47.6276 50.2364C48.0186 50.4816 47.7801 50.9436 47.424 51.1957C47.0678 51.4478 42.2814 55.1589 41.8169 55.569C41.3522 55.9793 40.6696 56.6568 40.2055 56.6568C39.7413 56.6568 39.0586 55.9793 38.5941 55.569C38.1295 55.1589 33.3432 51.4478 32.9869 51.1957C32.6307 50.9436 32.3924 50.4816 32.7833 50.2364C33.1744 49.9914 34.3977 49.373 36.0857 48.4983C37.7735 47.6238 39.8772 46.8803 40.2055 46.8803C40.5338 46.8803 42.6373 47.6238 44.3254 48.4983C46.0133 49.373 47.2366 49.9914 47.6276 50.2364Z" fill="white"/>
<mask id="mask0_61_939" style="mask-type:alpha" maskUnits="userSpaceOnUse" x="20" y="11" width="41" height="12">
<path d="M53.7403 17.4534L48.8294 11.875H40.2054H31.5814L26.6705 17.4534C26.6705 17.4534 22.3585 16.2542 20.3223 18.2929C20.3223 18.2929 26.0716 17.7733 28.0479 20.9913C28.0479 20.9913 33.3781 22.0107 34.0967 22.0107C34.8154 22.0107 36.3725 21.4111 37.8098 20.9313C39.2472 20.4516 40.2054 20.4482 40.2054 20.4482C40.2054 20.4482 41.1636 20.4516 42.601 20.9313C44.0383 21.4111 45.5954 22.0107 46.3141 22.0107C47.0327 22.0107 52.3629 20.9913 52.3629 20.9913C54.3392 17.7733 60.0885 18.2929 60.0885 18.2929C58.0523 16.2542 53.7403 17.4534 53.7403 17.4534Z" fill="white"/>
</mask>
<g mask="url(#mask0_61_939)">
<path d="M53.7403 17.4534L48.8294 11.875H40.2054H31.5814L26.6705 17.4534C26.6705 17.4534 22.3585 16.2542 20.3223 18.2929C20.3223 18.2929 26.0716 17.7733 28.0479 20.9913C28.0479 20.9913 33.3781 22.0107 34.0967 22.0107C34.8154 22.0107 36.3725 21.4111 37.8098 20.9313C39.2472 20.4516 40.2054 20.4482 40.2054 20.4482C40.2054 20.4482 41.1636 20.4516 42.601 20.9313C44.0383 21.4111 45.5954 22.0107 46.3141 22.0107C47.0327 22.0107 52.3629 20.9913 52.3629 20.9913C54.3392 17.7733 60.0885 18.2929 60.0885 18.2929C58.0523 16.2542 53.7403 17.4534 53.7403 17.4534Z" fill="url(#paint1_linear_61_939)"/>
</g>
</g>
<defs>
<linearGradient id="paint0_linear_61_939" x1="16.25" y1="40.3968" x2="64.1612" y2="40.3968" gradientUnits="userSpaceOnUse">
<stop stop-color="#FF5500"/>
<stop offset="0.409877" stop-color="#FF5500"/>
<stop offset="0.581981" stop-color="#FF2000"/>
<stop offset="1" stop-color="#FF2000"/>
</linearGradient>
<linearGradient id="paint1_linear_61_939" x1="21.1766" y1="17.0144" x2="60.0885" y2="17.0144" gradientUnits="userSpaceOnUse">
<stop stop-color="#FF452A"/>
<stop offset="1" stop-color="#FF2000"/>
</linearGradient>
<clipPath id="clip0_61_939">
<rect width="80" height="80" rx="24" fill="white"/>
</clipPath>
</defs>
</svg>
