<svg width="80" height="80" viewBox="0 0 80 80" fill="none" xmlns="http://www.w3.org/2000/svg">
<g clip-path="url(#clip0_61_945)">
<path d="M40 80C62.0914 80 80 62.0914 80 40C80 17.9086 62.0914 0 40 0C17.9086 0 0 17.9086 0 40C0 62.0914 17.9086 80 40 80Z" fill="url(#paint0_linear_61_945)"/>
<path d="M69.1152 40.5714H61.964C61.964 26.1032 50.1084 14.375 35.483 14.375C21.0385 14.375 9.29498 25.8161 9.0076 40.0364C8.71023 54.7356 22.6509 67.5 37.5119 67.5H39.3811C52.4829 67.5 70.0434 57.3542 72.7871 44.9921C73.294 42.7133 71.474 40.5714 69.1152 40.5714ZM24.8558 41.2159C24.8558 43.1507 23.2562 44.7331 21.3004 44.7331C19.3445 44.7331 17.745 43.1499 17.745 41.2159V35.5259C17.745 33.5911 19.3445 32.0087 21.3004 32.0087C23.2562 32.0087 24.8558 33.5911 24.8558 35.5259V41.2159ZM37.2017 41.2159C37.2017 43.1507 35.6022 44.7331 33.6464 44.7331C31.6905 44.7331 30.0909 43.1499 30.0909 41.2159V35.5259C30.0909 33.5911 31.6912 32.0087 33.6464 32.0087C35.6022 32.0087 37.2017 33.5911 37.2017 35.5259V41.2159Z" fill="url(#paint1_linear_61_945)"/>
</g>
<defs>
<linearGradient id="paint0_linear_61_945" x1="40" y1="0" x2="40" y2="80" gradientUnits="userSpaceOnUse">
<stop stop-color="#534BB1"/>
<stop offset="1" stop-color="#551BF9"/>
</linearGradient>
<linearGradient id="paint1_linear_61_945" x1="40.9376" y1="14.375" x2="40.9376" y2="67.5" gradientUnits="userSpaceOnUse">
<stop stop-color="white"/>
<stop offset="1" stop-color="white" stop-opacity="0.82"/>
</linearGradient>
<clipPath id="clip0_61_945">
<rect width="80" height="80" fill="white"/>
</clipPath>
</defs>
</svg>
