<svg width="36" height="36" viewBox="0 0 36 36" fill="none" xmlns="http://www.w3.org/2000/svg">
<circle cx="18" cy="18" r="18" fill="black"/>
<g clip-path="url(#clip0_61_722)">
<path d="M26.9073 22.788L23.9359 25.9269C23.8713 25.9951 23.7931 26.0495 23.7063 26.0867C23.6194 26.1238 23.5257 26.143 23.4311 26.1429H9.34496C9.27775 26.1429 9.212 26.1236 9.1558 26.0873C9.09959 26.051 9.05538 25.9993 9.02859 25.9385C9.0018 25.8778 8.9936 25.8107 9.005 25.7455C9.0164 25.6802 9.04689 25.6197 9.09275 25.5713L12.0664 22.4323C12.1309 22.3643 12.2088 22.3101 12.2953 22.2729C12.3819 22.2358 12.4753 22.2165 12.5697 22.2164H26.655C26.7223 22.2164 26.788 22.2357 26.8442 22.272C26.9004 22.3083 26.9446 22.36 26.9715 22.4207C26.9982 22.4815 27.0064 22.5485 26.995 22.6138C26.9836 22.679 26.9531 22.7396 26.9073 22.788ZM23.9359 16.467C23.8713 16.3988 23.7931 16.3445 23.7063 16.3073C23.6194 16.2702 23.5257 16.251 23.4311 16.2511H9.34496C9.27775 16.2511 9.212 16.2704 9.1558 16.3067C9.09959 16.343 9.05538 16.3947 9.02859 16.4554C9.0018 16.5161 8.9936 16.5833 9.005 16.6485C9.0164 16.7137 9.04689 16.7743 9.09275 16.8227L12.0664 19.9617C12.1309 20.0297 12.2088 20.0839 12.2953 20.1211C12.3819 20.1582 12.4753 20.1775 12.5697 20.1776H26.655C26.7223 20.1776 26.788 20.1583 26.8442 20.122C26.9004 20.0856 26.9446 20.034 26.9715 19.9733C26.9982 19.9125 27.0064 19.8454 26.995 19.7802C26.9836 19.7149 26.9531 19.6544 26.9073 19.606L23.9359 16.467ZM9.34496 14.2123H23.4311C23.5257 14.2123 23.6194 14.1932 23.7063 14.156C23.7931 14.1189 23.8713 14.0645 23.9359 13.9963L26.9073 10.8574C26.9531 10.809 26.9836 10.7484 26.995 10.6832C27.0064 10.6179 26.9982 10.5508 26.9715 10.4901C26.9446 10.4294 26.9004 10.3777 26.8442 10.3414C26.788 10.3051 26.7223 10.2858 26.655 10.2858H12.5697C12.4753 10.2859 12.3819 10.3052 12.2953 10.3423C12.2088 10.3795 12.1309 10.4337 12.0664 10.5017L9.09352 13.6407C9.04771 13.689 9.01722 13.7495 9.0058 13.8147C8.99437 13.8799 9.00251 13.9469 9.0292 14.0076C9.0559 14.0683 9.09999 14.12 9.15608 14.1563C9.21217 14.1927 9.27782 14.2121 9.34496 14.2123Z" fill="url(#paint0_linear_61_722)"/>
</g>
<defs>
<linearGradient id="paint0_linear_61_722" x1="10.5194" y1="26.5208" x2="25.0416" y2="9.90078" gradientUnits="userSpaceOnUse">
<stop offset="0.08" stop-color="#9945FF"/>
<stop offset="0.3" stop-color="#8752F3"/>
<stop offset="0.5" stop-color="#5497D5"/>
<stop offset="0.6" stop-color="#43B4CA"/>
<stop offset="0.72" stop-color="#28E0B9"/>
<stop offset="0.97" stop-color="#19FB9B"/>
</linearGradient>
<clipPath id="clip0_61_722">
<rect width="18" height="15.8571" fill="white" transform="translate(9 10.2858)"/>
</clipPath>
</defs>
</svg>
