<svg width="128" height="128" viewBox="0 0 128 128" fill="none" xmlns="http://www.w3.org/2000/svg">
<g clip-path="url(#clip0_3_229)">
<path d="M64 128C99.3462 128 128 99.3462 128 64C128 28.6538 99.3462 0 64 0C28.6538 0 0 28.6538 0 64C0 99.3462 28.6538 128 64 128Z" fill="black"/>
<path fill-rule="evenodd" clip-rule="evenodd" d="M26.0043 79.123C26.0033 79.1999 26.0028 79.2769 26.0028 79.354C26.0028 88.7946 33.6559 96.4475 43.0965 96.4475C52.537 96.4475 60.19 88.7946 60.19 79.354C60.19 79.2769 60.1895 79.1999 60.1886 79.123H52.1021C52.1041 79.1997 52.105 79.2766 52.105 79.354C52.105 84.3295 48.0717 88.3628 43.0963 88.3628C38.1209 88.3628 34.0875 84.3295 34.0875 79.354C34.0875 79.2766 34.0885 79.1997 34.0904 79.123H26.0043ZM43.0965 32C54.1955 32 63.193 40.9975 63.193 52.0966C63.193 63.1957 54.1955 72.1932 43.0965 72.1932C31.9975 72.1932 23 63.1957 23 52.0966C23 40.9975 31.9975 32 43.0965 32ZM43.0965 40.0848C49.7304 40.0848 55.1083 45.4625 55.1083 52.0964C55.1083 58.7303 49.7304 64.1083 43.0965 64.1083C36.4626 64.1083 31.0848 58.7303 31.0848 52.0964C31.0848 45.4625 36.4626 40.0848 43.0965 40.0848ZM44.4823 48.1751C46.0973 48.7459 47.2545 50.2861 47.2545 52.0966C47.2545 54.393 45.3928 56.2544 43.0965 56.2544C40.8002 56.2544 38.9386 54.393 38.9386 52.0966C38.9386 50.2863 40.0956 48.7462 41.7105 48.1753V45.3977H44.4823V48.1751ZM70.1345 57.2919C68.8016 54.8581 68.0438 52.0642 68.0438 49.0936C68.0438 39.6531 75.697 32 85.1375 32C94.5781 32 102.231 39.6531 102.231 49.0936C102.231 52.0645 101.473 54.8581 100.14 57.2921C98.03 55.6287 95.6367 54.3082 93.0445 53.4147C93.7469 52.1317 94.1463 50.6593 94.1463 49.0936C94.1463 44.1181 90.1129 40.0848 85.1375 40.0848C80.1621 40.0848 76.1287 44.1181 76.1287 49.0936C76.1287 50.6593 76.5281 52.1317 77.2306 53.4145C74.6383 54.3079 72.245 55.6285 70.1345 57.2919ZM85.1375 96.4475C96.2365 96.4475 105.234 87.45 105.234 76.351C105.234 65.2519 96.2365 56.2544 85.1375 56.2544C74.0385 56.2544 65.041 65.2519 65.041 76.351C65.041 87.45 74.0385 96.4475 85.1375 96.4475ZM85.1375 88.3628C91.7714 88.3628 97.1491 82.9849 97.1491 76.351C97.1491 69.7171 91.7714 64.3393 85.1375 64.3393C78.5036 64.3393 73.1257 69.7171 73.1257 76.351C73.1257 82.9849 78.5036 88.3628 85.1375 88.3628ZM86.5233 80.2725C88.1383 79.7017 89.2955 78.1615 89.2955 76.351C89.2955 74.0546 87.4339 72.1932 85.1375 72.1932C82.8412 72.1932 80.9797 74.0546 80.9797 76.351C80.9797 78.1613 82.1367 79.7014 83.7515 80.2723V83.0499H86.5233V80.2725Z" fill="#DEAE30"/>
</g>
<defs>
<clipPath id="clip0_3_229">
<rect width="128" height="128" fill="white"/>
</clipPath>
</defs>
</svg>
