<svg width="128" height="128" viewBox="0 0 128 128" fill="none" xmlns="http://www.w3.org/2000/svg">
<g clip-path="url(#clip0_3_238)">
<path d="M64 128C99.3462 128 128 99.3462 128 64C128 28.6538 99.3462 0 64 0C28.6538 0 0 28.6538 0 64C0 99.3462 28.6538 128 64 128Z" fill="black"/>
<path d="M48.7066 37.8698L40.0167 32.8192L63.6538 19L87.3605 32.8192L78.6703 37.8698L63.6538 29.1715L48.7066 37.8698ZM93.5479 46.5681V56.7397L102.238 51.6891V41.5175L93.5479 36.3967L84.8577 41.4474L93.5479 46.5681ZM54.9636 41.5175L63.6538 46.5681L72.344 41.5175L63.6538 36.3967L54.9636 41.5175ZM87.3605 50.2158L78.6703 45.1651L63.6538 53.8636L48.7066 45.1651L40.0167 50.2158V60.3873L54.9636 69.0856V86.4823L63.6538 91.5329L72.344 86.4823V69.0856L87.3605 60.3873V50.2158ZM93.5479 81.4317L78.601 90.1302V100.301L102.308 86.4823V58.9143L93.5479 64.0349V81.4317ZM78.601 82.9048L87.2909 77.8541V67.6125L78.601 72.6631V82.9048ZM54.9636 93.7778V103.949L63.6538 109L72.344 103.949V93.7778L63.6538 98.8284L54.9636 93.7778ZM25 51.6891L33.6902 56.7397V46.5681L42.3804 41.5175L33.7597 36.3967L25.0695 41.4474V51.6891H25ZM33.7597 64.0349L25.0695 58.9843V86.5526L48.7762 100.372V90.2003L33.7597 81.4317V64.0349ZM48.7066 72.7334L40.0167 67.6828V77.8541L48.7066 82.9048V72.7334Z" fill="#F1BA0D"/>
</g>
<defs>
<clipPath id="clip0_3_238">
<rect width="128" height="128" fill="white"/>
</clipPath>
</defs>
</svg>
